<?xml version="1.0" encoding="UTF-8"?>
<svg id="Layer_2" data-name="Layer 2" xmlns="http://www.w3.org/2000/svg" viewBox="0 0 648 528.65">
  <defs>
    <style>
      .cls-1 {
        fill: #cfa2ff;
      }

      .cls-1, .cls-2, .cls-3, .cls-4, .cls-5 {
        stroke-width: 0px;
      }

      .cls-3 {
        fill: #fff;
      }

      .cls-4 {
        fill: #8647c9;
      }

      .cls-5 {
        fill: #5f1799;
      }
    </style>
  </defs>
  <g id="Layer_1-2" data-name="Layer 1">
    <g>
      <g>
        <path class="cls-2" d="M324,528.65c-145.75,0-264.32-118.58-264.32-264.32S178.25,0,324,0s264.32,118.58,264.32,264.32-118.57,264.32-264.32,264.32ZM324,4.49C180.73,4.49,64.17,121.05,64.17,264.32s116.56,259.83,259.83,259.83,259.83-116.56,259.83-259.83S467.27,4.49,324,4.49Z"/>
        <circle class="cls-2" cx="324" cy="264.32" r="249.01"/>
        <g>
          <path class="cls-3" d="M136.04,134.68l11.98,6.35-10.51,19.83-6.88-3.65c-1.64-.87-3.68-.24-4.54,1.4l-.9,1.69c-.87,1.64-.24,3.68,1.4,4.54l14.83,7.86,12.65-23.87c.22-.41.5-.78.83-1.08,1.23-1.14,3.09-1.44,4.66-.61l12.59,6.67c7.22,3.82,9.97,12.78,6.14,20l-16.23,30.63c-1.05,1.98-3.51,2.74-5.49,1.69l-45.6-24.16c-1.98-1.05-2.74-3.51-1.69-5.49l21.26-40.11c1.05-1.98,3.5-2.74,5.49-1.69ZM147.15,175.73l14.83,7.86c1.64.87,3.68.25,4.54-1.39l.89-1.69c.87-1.64.25-3.68-1.39-4.54l-14.83-7.86-4.04,7.63Z"/>
          <path class="cls-3" d="M198.83,86.21l27.45,30.3c1.51,1.66,1.38,4.23-.28,5.74l-10.62,9.61c-.6.54-1.31.87-2.05.99-1.32.22-2.72-.21-3.69-1.28l-7.67-8.46-6.4,5.8,7.67,8.46c.97,1.07,1.26,2.5.91,3.8-.2.72-.6,1.4-1.19,1.94l-10.62,9.61c-1.66,1.51-4.23,1.38-5.74-.29l-27.45-30.3c-5.49-6.06-5.03-15.42,1.03-20.9l17.74-16.07c6.06-5.49,15.41-5.02,20.9,1.04ZM197.63,118.31l-18.76-20.71c-1.25-1.38-3.37-1.48-4.75-.23l-1.42,1.29c-1.38,1.25-1.48,3.37-.24,4.75l18.76,20.71,6.4-5.8Z"/>
          <path class="cls-3" d="M278.45,80.75l.5,1.19,4.04,9.95c.84,2.08-.16,4.45-2.24,5.29l-42.08,17.06c-2.08.84-4.45-.16-5.29-2.24l-19.4-47.83c-.84-2.08.16-4.45,2.24-5.29l13.27-5.38c2.08-.84,4.45.16,5.29,2.24l18.49,45.59,4.89-1.98c1.72-.7,2.55-2.66,1.85-4.38l-2.25-5.56c-.75-1.86.14-3.99,2-4.74l14.23-5.77c1.75-.71,3.74.12,4.46,1.86Z"/>
          <path class="cls-3" d="M342.93,47.5l1.44,40.84c.08,2.24-1.67,4.12-3.92,4.2l-14.3.5c-.8.03-1.56-.18-2.21-.56-1.15-.68-1.94-1.92-2-3.35l-.4-11.41-8.63.31.4,11.4c.05,1.44-.65,2.73-1.75,3.49-.61.43-1.36.69-2.16.71l-14.3.51c-2.25.08-4.12-1.67-4.2-3.91l-1.45-40.84c-.29-8.17,6.1-15.02,14.26-15.3l23.91-.85c8.16-.29,15.01,6.09,15.3,14.26ZM321.32,71.25l-.99-27.92c-.07-1.86-1.62-3.31-3.48-3.24l-1.91.07c-1.86.07-3.31,1.62-3.24,3.48l.99,27.91,8.63-.3Z"/>
          <path class="cls-3" d="M404.3,106.71c.37,1.76-1.29,3.26-3,2.71l-19.5-6.29c-.8-.26-1.39-.92-1.57-1.74l-3.61-17-14.63,11.29c-.61.47-1.41.61-2.14.37l-4.79-1.54c-1.79-.58-2.2-2.93-.71-4.07l20.24-15.61-7.55-35.53c-.37-1.76,1.29-3.26,3-2.71l19.51,6.29c.79.26,1.39.92,1.57,1.74l3.19,15.01,12.94-9.98c.61-.47,1.41-.61,2.14-.38l4.79,1.54c1.79.58,2.2,2.93.71,4.07l-18.55,14.31,7.98,37.52Z"/>
          <path class="cls-3" d="M483.24,100.63l-9.7,12.65c-1.65,2.15-4.14,3.51-6.84,3.76l-7.71.7-5.58.51c-1.03.09-2.06-.02-3.04-.31l-10.89,14.19c-1.36,1.78-3.92,2.11-5.7.75l-11.36-8.72c-.64-.49-1.09-1.13-1.35-1.84-.46-1.26-.28-2.72.6-3.86l10.89-14.19c-.54-.87-.91-1.84-1.08-2.86l-.96-5.52-1.32-7.62c-.23-1.34-.18-2.69.14-3.99.32-1.29.9-2.52,1.72-3.59l9.7-12.65c.13-.17.27-.32.42-.46.1-.09.2-.18.3-.26.32-.25.67-.45,1.03-.59.61-.24,1.27-.32,1.92-.25.39.04.78.14,1.14.3.13.05.25.11.36.18.18.1.36.21.52.34l11.36,8.72c1.78,1.37,2.12,3.91.75,5.69l-18.14,23.65c-1.22,1.59-.92,3.87.67,5.09l1.1.84c1.59,1.22,3.87.92,5.09-.67l18.15-23.65c1.36-1.78,3.91-2.11,5.69-.75l11.36,8.72c.17.13.32.27.46.41.09.1.18.2.26.3.25.32.45.66.59,1.03.24.61.32,1.27.25,1.91-.04.39-.14.78-.3,1.15-.05.12-.11.24-.18.36-.1.18-.21.35-.34.52Z"/>
        </g>
        <g>
          <path class="cls-3" d="M203.61,400.6l-5.23,4.69-11.82-13.2,1.83-1.64c1.09-.98,1.18-2.65.21-3.75l-1.01-1.12c-.98-1.09-2.65-1.18-3.75-.2l-23.55,21.1c-1.09.98-1.18,2.66-.21,3.75l1,1.13c.98,1.09,2.66,1.18,3.75.2l1.83-1.64,11.83,13.19-5.23,4.69c-1.32,1.18-3.35,1.07-4.53-.25l-23.92-26.69c-1.18-1.32-1.07-3.35.25-4.53l30.34-27.19c1.32-1.18,3.35-1.07,4.53.25l23.92,26.69c1.18,1.32,1.07,3.34-.25,4.53Z"/>
          <path class="cls-3" d="M238.37,434.24l-13.03,19.93c-3.53,5.4-10.77,6.92-16.17,3.39l-15.82-10.34c-5.4-3.53-6.92-10.77-3.39-16.17l13.02-19.93c3.53-5.4,10.77-6.92,16.17-3.38l15.82,10.34c5.4,3.53,6.92,10.77,3.39,16.17ZM204.7,448.52c1.23.8,2.87.46,3.68-.77l17.31-26.47c.8-1.23.46-2.87-.77-3.68l-1.26-.82c-1.23-.8-2.87-.46-3.68.77l-17.3,26.48c-.8,1.23-.46,2.87.77,3.68l1.26.82Z"/>
          <path class="cls-3" d="M252.2,473.77c-.55,1.68-2.36,2.61-4.04,2.06l-10.75-3.5c-1.69-.55-2.61-2.36-2.06-4.04l12.6-38.76c.55-1.68,2.36-2.61,4.04-2.06l34.09,11.08c1.68.55,2.61,2.36,2.06,4.04l-2.17,6.68-16.86-5.48.76-2.34c.45-1.39-.31-2.89-1.7-3.34l-3.96-1.29-4.92,15.13,14.69,4.78c.47.15.81.52.93.96.08.27.08.56,0,.85l-.69,2.13c-.1.29-.27.52-.49.69-.36.28-.85.38-1.32.23l-14.7-4.78-5.51,16.95Z"/>
          <path class="cls-3" d="M308.88,485.18c-.09,1.77-1.6,3.13-3.37,3.04l-11.29-.59c-1.77-.09-3.13-1.6-3.04-3.37l2.11-40.71c.09-1.77,1.6-3.13,3.37-3.04l35.81,1.86c1.77.09,3.13,1.6,3.04,3.37l-.36,7.02-17.7-.92.13-2.46c.07-1.46-1.05-2.71-2.51-2.79l-4.16-.22-.82,15.89,15.44.8c.49.03.91.3,1.15.69.14.24.22.52.21.82l-.11,2.24c-.02.3-.13.57-.29.8-.28.36-.72.59-1.22.56l-15.43-.8-.93,17.8Z"/>
          <path class="cls-3" d="M382.21,436.65l1.45,6.87-17.34,3.66-.5-2.41c-.3-1.43-1.71-2.35-3.15-2.05l-4.08.86,3.29,15.57,15.12-3.19c.48-.1.96.05,1.29.37.2.19.35.45.41.74l.46,2.2c.06.29.03.59-.08.84-.17.42-.55.75-1.03.86l-15.12,3.19,3.29,15.57,4.07-.86c1.43-.3,2.35-1.71,2.05-3.15l-.5-2.41,17.34-3.66,1.45,6.87c.36,1.73-.75,3.44-2.48,3.8l-35.08,7.4c-1.73.37-3.43-.74-3.8-2.48l-8.41-39.87c-.37-1.73.74-3.44,2.47-3.8l35.08-7.4c1.73-.37,3.43.74,3.8,2.48Z"/>
          <path class="cls-3" d="M424.83,415.68l3.19,6.25-15.77,8.06-1.12-2.19c-.67-1.3-2.26-1.82-3.57-1.16l-3.71,1.89,7.23,14.16,13.75-7.02c.44-.23.94-.2,1.34.02.24.13.45.34.59.61l1.02,2c.14.27.18.56.14.83-.06.45-.33.87-.77,1.1l-13.75,7.03,7.23,14.16,3.71-1.89c1.31-.67,1.82-2.26,1.16-3.57l-1.12-2.19,15.77-8.06,3.19,6.25c.81,1.58.18,3.51-1.39,4.31l-31.9,16.3c-1.58.8-3.51.18-4.32-1.4l-18.53-36.27c-.8-1.58-.18-3.51,1.4-4.31l31.9-16.3c1.57-.8,3.51-.18,4.31,1.4Z"/>
          <path class="cls-3" d="M477.77,361.42l5.46,4.41-11.14,13.77-1.91-1.55c-1.14-.92-2.81-.75-3.73.39l-.95,1.17c-.92,1.14-.75,2.81.39,3.73l24.58,19.88c1.14.92,2.81.75,3.73-.39l.95-1.17c.93-1.14.75-2.81-.39-3.73l-1.91-1.55,11.14-13.77,5.46,4.41c1.38,1.11,1.59,3.13.48,4.51l-22.53,27.86c-1.11,1.38-3.13,1.59-4.51.48l-31.67-25.62c-1.38-1.11-1.59-3.13-.47-4.51l22.53-27.86c1.11-1.38,3.13-1.59,4.51-.48Z"/>
          <path class="cls-3" d="M505.46,321.6l21.77,9.66c5.9,2.62,8.56,9.52,5.94,15.42l-7.67,17.28c-2.62,5.9-9.52,8.56-15.42,5.94l-21.77-9.66c-5.9-2.62-8.56-9.52-5.94-15.42l7.67-17.28c2.62-5.9,9.52-8.56,15.42-5.94ZM524.96,352.56c.6-1.34,0-2.91-1.35-3.51l-28.92-12.83c-1.34-.6-2.91.01-3.5,1.35l-.61,1.38c-.6,1.34,0,2.91,1.35,3.5l28.92,12.83c1.34.6,2.91,0,3.5-1.35l.61-1.38Z"/>
          <path class="cls-3" d="M538.15,307.23l1.01.23c2.34.54,3.87,2.58,3.41,4.55l-1.34,5.77c-.46,1.97-2.73,3.13-5.07,2.59l-1.01-.23c-2.34-.54-3.87-2.58-3.41-4.55l1.34-5.78c.46-1.97,2.73-3.13,5.07-2.59Z"/>
        </g>
        <g>
          <g>
            <path class="cls-5" d="M364.89,132.47c-1.79.12-4.98-.07-9.59-.57-4.75-.5-13.12-.26-25.13.72-9.71.8-17.98,2.2-24.83,4.19-26.13,7.6-47.14,22.9-63.04,45.9-5.05,7.29-8.83,13.63-11.33,19.02-.98,2.1-.6,2.37,1.11.83.51-.45,1.95-1.83,4.33-4.13,11.9-11.47,29.56-24.66,46.83-27.67,3.31-.58,3.67.21,1.08,2.35-31.99,26.53-62.29,62.82-56.8,107.21l-40.36,4.13c-.5.06-.78-.17-.85-.67-3.62-27.15-.23-52.42,10.15-75.8,12.53-28.19,32.28-49.61,59.26-64.27,33.55-18.22,72.81-23.13,109.15-11.23Z"/>
            <path class="cls-4" d="M364.89,132.47c14.69,4.53,28.42,11.01,41.19,19.44.15.11.29.24.4.38l1.71,2.28c-.47.41-.97.51-1.51.3-23.3-9.13-47.02-11.65-71.18-7.57-11.43,1.93-22.55,4.92-33.38,8.97-.01,0-.08.12-.2.37v.02c-.05.09.02.18.17.21.06.01.12.01.18,0,16.85-3.16,33.6-3.27,50.24-.33,1.79.32,1.79.64,0,.95-32.03,5.57-54.85,22.08-68.45,49.54-5.4,10.92-8.4,21.46-8.99,31.62-.68,11.41,1.34,22.52,6.04,33.35l-53.59,8.32c-5.49-44.38,24.81-80.68,56.8-107.21,2.59-2.14,2.22-2.92-1.08-2.35-17.27,3.01-34.93,16.21-46.83,27.67-2.37,2.3-3.82,3.67-4.33,4.13-1.72,1.54-2.09,1.26-1.11-.83,2.51-5.39,6.28-11.73,11.33-19.02,15.9-23,36.91-38.3,63.04-45.9,6.85-2,15.12-3.39,24.83-4.19,12-.98,20.38-1.21,25.13-.72,4.6.5,7.8.69,9.59.57Z"/>
            <path class="cls-1" d="M408.2,154.57c2.91,1.75,5.19,3.33,6.86,4.73,19.27,16.19,33.36,36.08,42.27,59.68.92,2.43,1.63,4.93,2.11,7.49.1.57-.12.95-.67,1.15l-10.78,3.73c-.48-27.87-16.89-50.74-41.75-62.72-.17-.08-.29-.03-.38.13-.08.13-.11.28-.1.45,0,.13.06.24.17.33,15.18,11.8,21.17,26.96,8.37,43.92-2.41,3.2-4.43,6.16-7.79,5.94-25.44-1.68-70.81,2.46-73.49,35.86-.14,1.9-.58,3.68-1.3,5.36-.22.53-.06.89.5,1.07.19.07.42.12.7.17l-51.79,10.15c-4.7-10.83-6.72-21.94-6.04-33.35.59-10.16,3.58-20.7,8.99-31.62,13.6-27.46,36.42-43.97,68.45-49.54,1.79-.31,1.79-.63,0-.95-16.64-2.94-33.39-2.83-50.24.33-.15.03-.31-.02-.35-.11-.02-.03-.02-.07,0-.11v-.02c.12-.24.19-.37.2-.37,10.83-4.05,21.96-7.04,33.38-8.97,24.15-4.08,47.88-1.56,71.18,7.57.54.21,1.05.11,1.51-.3Z"/>
            <path class="cls-3" d="M447.99,231.34c-37.74,12.35-76.1,22.52-115.08,30.5-.28-.04-.51-.1-.7-.17-.55-.18-.72-.53-.5-1.07.72-1.68,1.15-3.46,1.3-5.36,2.68-33.4,48.04-37.54,73.49-35.86,3.36.22,5.38-2.75,7.79-5.94,12.8-16.96,6.81-32.12-8.37-43.92-.11-.09-.17-.2-.17-.33-.01-.17.02-.32.1-.45.09-.17.22-.21.38-.13,24.86,11.98,41.27,34.85,41.75,62.72Z"/>
          </g>
          <g>
            <path class="cls-5" d="M612.25,188.74c2.32,3.55,3.59,6.7,3.83,9.45.2,2.35-.67,4.6-2.61,6.74-6.41,7.09-18.77,12.91-27.66,16.67-16.84,7.13-38.41,14.7-64.7,22.7l-.2.05-.13-.48c-.16-.61.05-1.04.62-1.3,12.38-5.54,24.46-11.07,33.87-20.65,3.97-4.05,5.72-9.22,5.26-15.53-.02-.3-.18-.43-.48-.4l-.48.07c-.12.01-.19.08-.2.2-.42,4.62-2.34,8.43-5.74,11.45-4.78,4.23-10.53,8.12-15.78,10.68-16.76,8.21-34.16,15.13-52.19,20.75-20.78,6.48-40.53,12.3-59.26,17.47-.94.27-2.25.34-3.91.22-.84-.07-.92-.33-.22-.8,3.67-2.49,5.76-3.84,6.27-4.06,8.37-3.77,16.85-7.77,25.45-12,.57-.29.8-1,.5-1.57-.12-.23-.32-.42-.55-.53-.13-.06-.58,0-1.35.17,8.04-3.46,18.39-6.27,24.58-8.54,15.08-5.48,34.95-13.15,50.39-24.53,3.01-2.22,3.69-5.14,2.06-8.77-5.23-11.67-46.15-8.25-56.96-7.32-.03,0-.06,0-.08-.02l-.32-.3c-.19-.18-.16-.3.1-.37,2.19-.5,4.39-.92,6.61-1.26,5.52-.85,26.91-3.11,64.15-6.77,21.75-2.14,44.79-2.62,69.15-1.43Z"/>
            <path class="cls-4" d="M634.19,192.93c5.4,5.35,6.26,10.25,2.56,14.71-2.76,3.35-5.27,5.7-7.52,7.04-12.4,7.4-27.53,15-45.37,22.8-39.86,17.44-81.8,31.22-125.83,41.34-.22.04-.4.01-.55-.1-.34-.28-.32-.5.08-.67,2.49-1,9.15-3.46,20-7.39,12.66-4.57,27.61-10.79,44.85-18.67.14-.07.18-.16.12-.28v-.02c-.08-.12-.17-.17-.28-.13-71.35,24.65-144.27,43.15-218.75,55.5-8.56,1.41-29.23,4.42-61.99,9.04-.03,0-.05-.01-.05-.03-.1-1.18-.09-1.14.02.12.01.08.05.12.12.12l29.92-.17c.08,0,.12.04.13.12l.05.47c.03.19-.04.31-.23.35-54,10.05-90.09,16.38-108.29,18.97-27.23,3.88-45.76,6.76-68.8,8.8-14.42,1.29-28.91,2.54-43.45,3.76-11.88-.23-23.73-1.61-35.55-4.14-7.29-1.55-20.32-7.09-13.45-16.94,6.62-9.45,19.59-16.36,30.22-21.48-2.2,3.49-3.25,6.49-3.15,8.99.42,10.3,31.05,11.28,38.11,11.37,24.98.32,50.19-.59,75.6-2.73.17-.02.3-.17.29-.33,0,0,0-.01,0-.02l-.07-.5c-.03-.22-.21-.38-.43-.38-19.56-.08-33.51-.54-41.84-1.4-9.87-1-44.62-3.23-37.59-15.11,1.19-2.02,2.47-3.45,3.86-4.29,2.11-1.29,2.44-.93.98,1.07-7.46,10.27,9.34,13.18,16.01,13.86,12.16,1.23,23.28,1.74,33.37,1.51,42.8-.99,84.69-4.93,125.68-11.82,16.06-2.7,31.67-4.16,48.24-7.22,5.45-1,14.64-2.39,27.59-4.18,9.29-1.28,18.54-2.7,27.76-4.28.38-.07.54-.29.5-.67l-.08-.6c-.04-.3-.22-.44-.52-.42l-88.7,6.14c-.6.04-.83-.23-.7-.83.08-.3.22-.6.42-.9,46.32-6.93,92.18-16.34,137.59-28.21,19.36-5.07,38.53-10.75,57.5-17.04.77-.17,1.21-.22,1.35-.17.59.27.84.96.58,1.54-.11.24-.29.43-.53.55-8.6,4.23-17.08,8.23-25.45,12-.51.22-2.6,1.58-6.27,4.06-.7.47-.63.73.22.8,1.66.12,2.97.05,3.91-.22,18.73-5.17,38.48-10.99,59.26-17.47,18.03-5.62,35.42-12.54,52.19-20.75,5.24-2.56,11-6.46,15.78-10.68,3.41-3.02,5.32-6.83,5.74-11.45.01-.12.08-.19.2-.2l.48-.07c.3-.03.46.1.48.4.47,6.3-1.29,11.48-5.26,15.53-9.4,9.59-21.48,15.11-33.87,20.65-.57.26-.77.69-.62,1.3l.13.48.2-.05c26.29-8,47.86-15.57,64.7-22.7,8.89-3.76,21.25-9.59,27.66-16.67,1.94-2.14,2.81-4.39,2.61-6.74-.23-2.75-1.51-5.9-3.83-9.45l21.93,4.19Z"/>
            <path class="cls-3" d="M634.19,192.93c6.67,1.9,16.62,8.07,13.06,15.66-3.69,7.9-17.97,15.71-26.51,20.05-30.85,15.73-63.3,27.13-96.85,37.86-56.04,17.93-120.21,34.19-192.53,48.79-57.47,11.62-115.08,20.77-172.82,27.48-35.66,4.15-71.53,6.09-107.6,5.82,14.54-1.22,29.03-2.47,43.45-3.76,23.03-2.05,41.57-4.93,68.8-8.8,18.19-2.6,54.29-8.92,108.29-18.97.19-.04.27-.16.23-.35l-.05-.47c-.01-.08-.06-.12-.13-.12l-29.92.17c-.07,0-.11-.04-.12-.12-.11-1.25-.12-1.29-.02-.12,0,.02.02.03.05.03,32.76-4.62,53.43-7.63,61.99-9.04,74.49-12.35,147.41-30.85,218.75-55.5.11-.03.21.01.28.13v.02c.07.12.03.22-.12.28-17.24,7.88-32.19,14.1-44.85,18.67-10.85,3.93-17.52,6.39-20,7.39-.4.17-.43.39-.08.67.14.11.33.14.55.1,44.02-10.12,85.96-23.9,125.83-41.34,17.84-7.8,32.96-15.4,45.37-22.8,2.25-1.34,4.76-3.69,7.52-7.04,3.69-4.46,2.84-9.36-2.56-14.71Z"/>
            <path class="cls-5" d="M257.49,293.3c-.2.3-.34.6-.42.9-.13.6.1.88.7.83l88.7-6.14c.3-.02.47.12.52.42l.08.6c.04.38-.12.6-.5.67-9.22,1.58-18.47,3-27.76,4.28-12.95,1.79-22.14,3.18-27.59,4.18-16.58,3.06-32.18,4.53-48.24,7.22-40.98,6.89-82.88,10.83-125.68,11.82-10.08.22-21.21-.28-33.37-1.51-6.67-.68-23.46-3.59-16.01-13.86,1.45-2,1.13-2.35-.98-1.07-1.39.84-2.67,2.27-3.86,4.29-7.02,11.88,27.72,14.11,37.59,15.11,8.33.85,22.28,1.32,41.84,1.4.22,0,.41.16.43.38l.07.5c.03.16-.09.32-.26.35,0,0-.01,0-.02,0-25.42,2.14-50.62,3.05-75.6,2.73-7.06-.08-37.69-1.07-38.11-11.37-.1-2.5.95-5.49,3.15-8.99,7.59-3.84,12.92-6.38,15.99-7.62,37.87-15.31,76.53-28.22,116.01-38.72.16-.04.29.03.4.22v.02c.12.2.06.34-.18.43-19.22,6.77-36.89,13.5-53.2,24.33-2.21,1.46-5.41,5.01-6.32,7.67-.61,1.74-.02,3.68,1.46,4.79,7.31,5.46,19.3,6.31,28.24,6.52,28.68.67,58.68-1.28,90.01-5.84,10.93-1.6,21.9-3.11,32.92-4.53Z"/>
          </g>
          <g>
            <path class="cls-4" d="M453.66,321.42c-4.87,4.68-9.54,9.41-14,14.18-6.22,6.65-10.94,11.29-14.15,13.95-12.16,10.04-25.69,17.91-40.61,23.6-.19.07-.36.12-.5.17-.46.14-.94-.12-1.08-.58-.1-.33,0-.7.28-.92,11.14-9.86,20.44-20.06,27.91-30.6,1.32-1.86,1-2.21-.97-1.03-20.45,12.36-43.02,22.73-66.67,26.84-30.37,5.27-57.32-1.8-80.86-21.22l62.11-11.22c8.08,2.73,16.14,4.83,24.18,6.29,7.99,1.44,15.29,1.66,21.92.65,7.49-1.14,14.59-3.31,21.32-6.51,8.88-4.23,16.04-10.81,21.48-19.75l11.42-2.98-4.14,12.73c-.51,1.56-.09,1.86,1.25.9,5.71-4.13,10.91-9.67,15.58-16.64l20.9-5.71c.87-.23,1.14.07.83.92l-6.21,16.94Z"/>
            <path class="cls-1" d="M438.13,309.27c-4.67,6.97-9.86,12.51-15.58,16.64-1.34.97-1.76.67-1.25-.9l4.14-12.73,12.68-3.01Z"/>
            <path class="cls-1" d="M414.04,315.26c-5.45,8.94-12.61,15.53-21.48,19.75-6.72,3.2-13.83,5.36-21.32,6.51-6.62,1.01-13.93.79-21.92-.65-8.04-1.46-16.1-3.56-24.18-6.29l88.9-19.32Z"/>
            <path class="cls-5" d="M453.66,321.42c-12.54,28.1-32.1,49.39-58.68,63.85-59.04,32.13-130.5,18.51-175.57-30.97-.43-.47-.4-1.19.07-1.62.17-.16.38-.26.61-.29l42.94-6.59c23.54,19.42,50.5,26.49,80.86,21.22,23.65-4.11,46.21-14.48,66.67-26.84,1.96-1.18,2.29-.83.97,1.03-7.47,10.54-16.77,20.74-27.91,30.6-.37.3-.42.85-.12,1.22.22.27.58.38.92.28.14-.04.31-.1.5-.17,14.91-5.69,28.45-13.56,40.61-23.6,3.21-2.65,7.92-7.3,14.15-13.95,4.46-4.77,9.13-9.5,14-14.18Z"/>
          </g>
        </g>
      </g>
      <circle class="cls-1" cx="119.05" cy="246.64" r="9.38"/>
      <ellipse class="cls-1" cx="497.24" cy="131.67" rx="1.28" ry="1.13" transform="translate(362.97 628.22) rotate(-89.7)"/>
      <ellipse class="cls-1" cx="468.86" cy="153.15" rx="2.62" ry="2.22" transform="translate(192.41 561.63) rotate(-74)"/>
      <circle class="cls-1" cx="515.76" cy="155.38" r="1.29"/>
      <circle class="cls-1" cx="148.62" cy="246.64" r="1.29"/>
      <circle class="cls-1" cx="491.93" cy="157.85" r="2.58"/>
      <circle class="cls-1" cx="135.68" cy="232.72" r="2.58"/>
      <path class="cls-1" d="M466.42,181.14c.7,2.14,2.66,3.66,4.88,4.03,4.36.74,7.5-2.82,7.68-6.93.04-.96.18-.95.41.01,1.32,5.44-1.55,10.82-7.41,11.36-2.83.26-5.77-.28-7.91-2.29-3.41-3.21-3.6-9.49-.44-12.98,1.37-1.51,3.32-2.35,5.29-2.75,1.46-.3,2.76-.19,3.88.34.48.23.46.36-.07.41-1.67.15-3.41.54-4.7,1.67-1.89,1.65-2.4,4.67-1.6,7.12Z"/>
      <circle class="cls-1" cx="512.76" cy="175.91" r="1.26"/>
    </g>
  </g>
</svg>